<svg id="Layer_1" data-name="Layer 1" xmlns="http://www.w3.org/2000/svg" viewBox="0 0 1440 1440"><defs><style>.cls-1{fill:#231f20;}</style></defs><path class="cls-1" d="M1015.2,460.79992V655.2H784.8V525.59986A129.59987,129.59987,0,0,0,655.20013,396H359.99992A64.79994,64.79994,0,0,0,295.2,460.79992V979.20008A64.79994,64.79994,0,0,0,359.99992,1044h.00013A64.79994,64.79994,0,0,0,424.8,979.20008V784.8H655.2V979.20008A64.79994,64.79994,0,0,0,719.99994,1044h.00012A64.79994,64.79994,0,0,0,784.8,979.20008V784.8h230.4V979.20008A64.79994,64.79994,0,0,0,1079.99995,1044h.00013A64.79994,64.79994,0,0,0,1144.8,979.20008V460.79992A64.79994,64.79994,0,0,0,1080.00008,396h-.00013A64.79994,64.79994,0,0,0,1015.2,460.79992ZM424.8,655.2V525.6H590.40006A64.79994,64.79994,0,0,1,655.2,590.39993v.00013A64.79994,64.79994,0,0,1,590.40006,655.2Z"/></svg>